<?xml version="1.0" standalone="no"?>
<!DOCTYPE svg PUBLIC "-//W3C//DTD SVG 20010904//EN"
 "http://www.w3.org/TR/2001/REC-SVG-20010904/DTD/svg10.dtd">
<svg version="1.0" xmlns="http://www.w3.org/2000/svg"
 width="2150.000000pt" height="2150.000000pt" viewBox="0 0 2150.000000 2150.000000"
 preserveAspectRatio="xMidYMid meet">
<metadata>
Created by potrace 1.14, written by Peter Selinger 2001-2017
</metadata>
<g transform="translate(0.000000,2150.000000) scale(0.100000,-0.100000)"
fill="#000000" stroke="none">
<path d="M10588 21495 c-2 -1 -25 -5 -53 -9 -189 -24 -358 -77 -542 -170 -308
-156 -562 -414 -720 -731 -28 -55 -55 -116 -62 -136 -12 -36 -13 -37 -89 -48
-42 -7 -135 -24 -207 -38 -71 -14 -141 -27 -155 -29 -267 -45 -950 -233 -1285
-352 -323 -116 -561 -211 -758 -301 -49 -23 -91 -41 -92 -41 -5 0 -293 -137
-325 -154 -14 -7 -81 -43 -150 -78 -546 -284 -1088 -633 -1575 -1017 -104 -81
-280 -225 -295 -241 -3 -3 -39 -34 -80 -69 -669 -569 -1332 -1327 -1852 -2116
-104 -158 -368 -588 -368 -599 0 -2 -21 -41 -46 -87 -26 -46 -59 -106 -74
-134 -39 -71 -171 -334 -218 -435 -101 -216 -122 -262 -122 -266 0 -2 -9 -23
-19 -47 -11 -23 -32 -71 -46 -107 -15 -36 -33 -78 -40 -95 -53 -123 -160 -412
-230 -622 -55 -163 -161 -512 -169 -556 -2 -12 -9 -34 -14 -48 -6 -14 -13 -39
-16 -55 -3 -16 -21 -92 -40 -169 -20 -77 -38 -151 -40 -165 -9 -47 -17 -85
-37 -175 -11 -49 -22 -101 -24 -115 -2 -14 -6 -34 -8 -45 -7 -29 -36 -185 -41
-220 -9 -61 -18 -120 -21 -135 -3 -17 -15 -91 -20 -130 -2 -14 -6 -47 -10 -75
-3 -27 -7 -59 -9 -70 -2 -11 -7 -49 -11 -85 -3 -36 -8 -76 -10 -90 -8 -54 -20
-173 -31 -305 -3 -44 -7 -96 -9 -115 -20 -217 -28 -1081 -12 -1335 15 -234 33
-449 52 -600 2 -16 6 -57 10 -90 3 -33 8 -71 10 -85 3 -14 7 -47 10 -75 3 -27
8 -62 11 -77 3 -15 7 -42 9 -60 23 -187 115 -645 191 -953 313 -1262 841
-2407 1617 -3510 134 -190 537 -700 597 -755 3 -3 20 -23 39 -45 143 -169 607
-641 806 -821 242 -219 542 -465 770 -634 55 -40 116 -85 135 -99 19 -14 48
-35 65 -47 16 -11 58 -40 93 -65 35 -24 71 -49 80 -54 9 -6 76 -49 147 -96
184 -121 380 -240 610 -369 318 -179 761 -389 1145 -542 553 -221 1231 -421
1775 -522 11 -2 38 -7 60 -11 22 -4 49 -9 60 -12 11 -2 38 -6 60 -9 22 -3 54
-9 70 -14 24 -7 101 -19 160 -25 17 -2 119 -17 140 -20 11 -2 47 -7 80 -11 33
-3 67 -7 75 -9 16 -3 95 -12 188 -21 31 -3 73 -7 92 -9 32 -4 69 -7 245 -20
325 -25 1082 -25 1370 0 28 2 82 7 120 10 63 5 97 8 224 20 20 2 63 7 96 10
33 3 72 8 86 10 15 3 47 7 70 10 76 9 233 31 279 39 14 3 43 7 65 11 22 3 66
10 97 16 32 5 70 12 85 15 16 3 35 7 43 9 8 2 31 7 50 10 79 13 257 51 423 91
9 2 27 6 38 9 274 60 1077 313 1254 394 11 5 49 21 85 35 736 287 1561 747
2240 1250 98 73 356 274 400 312 14 12 59 50 100 84 336 279 846 778 1115
1094 28 32 55 63 60 70 106 122 286 343 366 451 24 33 46 62 49 65 8 7 106
141 177 240 100 141 235 346 352 535 24 39 52 82 62 97 11 15 19 29 19 32 0 2
26 48 58 103 248 417 488 911 679 1398 41 105 78 199 83 210 13 31 107 303
125 365 9 30 23 72 31 93 19 51 142 478 149 516 3 16 9 41 15 55 5 15 7 26 4
26 -2 0 0 8 5 18 5 9 11 31 14 47 3 17 19 86 35 155 38 159 79 365 127 640 5
27 32 210 41 275 3 22 7 54 10 70 12 89 35 290 39 355 3 41 8 89 10 105 2 17
7 75 10 130 4 55 9 125 12 155 4 30 8 1276 10 2768 l4 2712 -758 -2 -758 -3
-2 -890 c-8 -3078 -13 -4233 -17 -4330 -8 -165 -21 -358 -32 -465 -7 -70 -12
-120 -19 -195 -3 -33 -8 -71 -10 -85 -3 -14 -7 -41 -9 -60 -12 -97 -18 -139
-26 -185 -5 -27 -12 -67 -15 -87 -11 -81 -17 -112 -35 -203 -5 -27 -12 -66
-15 -85 -4 -19 -15 -73 -25 -120 -10 -47 -21 -96 -23 -110 -3 -14 -10 -45 -17
-70 -7 -25 -14 -53 -16 -64 -2 -10 -15 -64 -30 -120 -14 -55 -27 -109 -29
-118 -17 -83 -171 -559 -247 -763 -172 -459 -448 -1035 -681 -1420 -123 -203
-395 -618 -416 -635 -4 -3 -27 -34 -53 -70 -45 -64 -179 -239 -241 -314 -71
-86 -193 -232 -207 -247 -8 -8 -44 -49 -80 -89 -155 -176 -464 -487 -646 -650
-132 -118 -330 -286 -434 -367 -127 -100 -188 -146 -312 -236 -81 -59 -150
-107 -153 -107 -3 0 -35 -22 -72 -48 -70 -49 -320 -209 -383 -245 -19 -11 -75
-43 -125 -72 -311 -182 -798 -416 -1150 -552 -255 -99 -688 -242 -843 -278 -9
-3 -69 -18 -132 -34 -110 -29 -351 -84 -415 -95 -16 -3 -41 -8 -55 -11 -45
-10 -184 -35 -230 -41 -25 -3 -47 -7 -50 -9 -3 -2 -30 -6 -60 -10 -30 -4 -57
-8 -60 -10 -3 -2 -39 -6 -80 -10 -41 -4 -77 -8 -80 -10 -3 -2 -39 -6 -80 -10
-41 -4 -83 -9 -92 -10 -9 -2 -57 -7 -105 -10 -48 -4 -99 -8 -113 -10 -14 -2
-72 -7 -130 -10 -411 -23 -876 -19 -1220 10 -194 17 -427 44 -535 62 -16 2
-43 6 -60 8 -49 6 -263 43 -375 65 -58 12 -114 23 -125 26 -17 3 -172 39 -257
59 -229 54 -631 177 -893 273 -84 31 -326 126 -360 142 -11 5 -91 41 -178 80
-521 233 -1007 513 -1482 854 -119 85 -170 123 -285 213 -17 13 -200 162 -241
196 -93 78 -182 156 -328 292 -154 142 -481 479 -592 610 -19 22 -48 56 -66
75 -73 81 -242 293 -368 463 -75 100 -140 187 -144 193 -16 20 -227 338 -267
402 -21 35 -47 75 -56 90 -9 15 -23 38 -31 52 -8 14 -58 102 -112 195 -319
557 -606 1239 -790 1878 -41 143 -106 395 -119 457 -3 14 -18 86 -34 160 -17
74 -33 157 -36 184 -4 27 -9 52 -11 55 -1 3 -6 24 -9 45 -4 21 -8 48 -11 60
-12 57 -57 375 -70 501 -3 33 -8 74 -10 90 -2 17 -6 68 -10 115 -3 47 -8 99
-10 115 -12 87 -20 357 -20 660 0 399 9 607 41 905 2 25 6 68 9 95 2 28 6 64
9 80 3 17 7 50 10 75 5 47 23 176 31 220 2 14 11 68 20 120 8 52 22 129 30
170 8 41 17 86 19 100 3 14 8 36 11 50 3 14 8 39 11 55 3 17 19 86 35 155 17
69 33 133 35 143 2 10 6 27 9 37 3 10 7 27 9 37 2 10 23 83 45 163 23 80 44
152 46 160 8 32 77 247 95 295 10 28 42 115 70 195 279 773 688 1527 1200
2215 57 77 107 142 110 145 3 3 58 70 122 150 64 80 131 161 148 180 17 19 42
49 57 65 134 157 511 541 678 690 166 149 180 161 255 224 77 65 83 69 163
134 53 43 332 254 367 277 12 8 41 29 64 46 22 17 115 79 206 139 91 59 177
116 192 126 15 11 29 19 31 19 3 0 52 29 109 64 208 127 519 291 803 423 109
51 187 85 200 89 6 2 75 30 155 63 205 84 633 237 720 256 8 2 85 24 170 48
186 53 484 125 628 152 13 2 31 6 40 9 9 3 33 8 52 10 19 3 58 9 87 15 29 6
72 13 96 16 l44 6 58 -71 c242 -296 605 -509 980 -576 67 -11 83 -14 145 -19
80 -7 263 -8 310 -1 19 3 71 10 115 17 152 21 358 91 505 171 318 172 557 421
710 740 55 114 112 273 124 343 3 17 8 41 11 55 12 64 16 90 22 155 13 130 7
321 -13 436 -30 177 -111 407 -187 534 -183 306 -393 508 -688 663 -84 44
-329 139 -329 127 0 -2 -11 0 -26 5 -72 28 -239 47 -406 48 -86 0 -158 -1
-160 -3z m221 -706 c41 -1 108 -11 150 -21 42 -10 84 -20 94 -23 35 -8 173
-78 227 -115 221 -150 377 -404 408 -665 22 -184 -6 -353 -88 -520 -70 -145
-156 -250 -290 -357 -65 -51 -231 -128 -335 -154 -102 -25 -275 -35 -355 -20
-156 30 -264 72 -386 151 -382 248 -529 741 -348 1160 57 130 178 285 292 374
118 91 276 158 422 180 101 15 124 17 130 15 3 -1 39 -4 79 -5z"/>
<path d="M10558 16665 c-2 -2 -64 -6 -138 -9 -136 -7 -171 -10 -290 -21 -76
-7 -91 -9 -265 -31 -22 -3 -47 -7 -55 -9 -8 -3 -37 -7 -65 -10 -27 -4 -124
-21 -215 -40 -675 -137 -1278 -364 -1870 -703 -784 -449 -1465 -1066 -2002
-1812 -543 -757 -924 -1651 -1093 -2565 -8 -44 -17 -95 -20 -112 -3 -18 -7
-45 -9 -60 -17 -104 -42 -302 -51 -403 -4 -41 -8 -88 -10 -105 -7 -60 -19
-383 -19 -520 0 -149 12 -478 18 -511 2 -11 7 -60 11 -110 4 -49 9 -96 10
-104 2 -9 6 -43 10 -75 9 -78 16 -130 40 -275 22 -134 22 -137 61 -315 234
-1077 740 -2069 1483 -2907 87 -97 386 -398 495 -497 270 -245 684 -549 981
-721 17 -10 71 -41 120 -70 623 -363 1431 -640 2165 -744 106 -16 239 -31 355
-42 275 -25 932 -25 1097 1 13 2 57 6 98 10 362 30 896 145 1305 280 1459 484
2703 1505 3482 2855 274 476 515 1057 638 1540 2 8 16 60 30 115 39 150 101
471 124 640 28 197 29 209 36 285 22 242 29 410 30 645 0 193 -11 485 -19 531
-2 10 -7 59 -11 109 -4 49 -9 99 -11 110 -1 11 -10 74 -18 140 -9 66 -18 134
-21 150 -3 17 -12 68 -21 115 -209 1167 -734 2251 -1523 3140 -105 119 -417
429 -533 532 -411 363 -877 678 -1353 915 -208 105 -510 236 -640 278 -22 8
-78 28 -125 45 -323 118 -802 229 -1220 284 -151 20 -183 23 -430 42 -76 6
-557 13 -562 9z m407 -980 c94 -3 188 -7 210 -9 22 -3 68 -7 102 -11 936 -88
1862 -450 2640 -1032 62 -46 118 -89 125 -96 7 -6 46 -38 86 -71 280 -227 590
-548 833 -866 374 -488 648 -1007 844 -1595 154 -461 236 -882 272 -1380 14
-202 7 -768 -12 -864 -1 -9 -6 -50 -10 -91 -3 -41 -8 -82 -10 -90 -2 -8 -7
-40 -10 -70 -3 -30 -12 -91 -20 -135 -8 -44 -17 -96 -20 -115 -18 -113 -87
-402 -131 -550 -534 -1793 -1928 -3176 -3704 -3673 -201 -57 -520 -123 -690
-143 -36 -4 -67 -8 -70 -9 -3 -1 -41 -5 -85 -9 -44 -5 -93 -10 -110 -12 -131
-16 -685 -23 -790 -10 -22 3 -76 8 -120 11 -465 37 -992 159 -1444 335 -429
166 -851 398 -1221 669 -72 52 -270 208 -280 221 -3 3 -18 16 -35 29 -120 91
-421 393 -595 596 -510 595 -898 1326 -1109 2090 -53 191 -120 510 -136 645
-3 30 -8 62 -10 70 -4 13 199 15 1790 15 l1795 0 36 -73 c271 -564 830 -958
1460 -1031 119 -14 394 -6 504 13 250 45 456 121 660 244 183 111 314 225 484
422 107 123 255 396 315 580 148 454 114 958 -93 1385 -306 630 -947 1036
-1641 1039 -167 1 -255 -7 -395 -35 -297 -60 -586 -200 -825 -401 -188 -158
-343 -355 -454 -576 l-52 -102 -1795 0 -1794 0 5 23 c2 12 7 40 10 62 32 241
126 636 216 907 222 671 560 1273 1023 1822 116 138 402 431 515 529 37 32 79
68 92 80 53 48 231 187 349 273 593 427 1266 727 1973 878 89 19 180 37 202
40 22 3 51 8 65 11 24 4 38 6 145 20 28 4 60 8 72 10 12 2 57 6 100 10 43 4
89 8 103 11 14 2 115 7 225 10 110 4 201 8 203 9 2 2 11 1 20 -1 9 -1 94 -5
187 -9z"/>
<path d="M10767 13604 c-1 -1 -59 -4 -129 -8 -70 -4 -133 -8 -140 -11 -7 -2
-42 -6 -78 -10 -36 -3 -83 -10 -105 -15 -22 -5 -56 -11 -75 -14 -72 -12 -98
-18 -225 -51 -306 -80 -588 -196 -860 -355 -85 -49 -294 -189 -321 -214 -6 -6
-24 -20 -40 -31 -63 -44 -235 -198 -332 -295 l-102 -104 43 -40 c23 -23 90
-83 147 -135 58 -52 110 -100 115 -105 6 -6 23 -22 38 -35 l27 -24 119 115
c264 258 567 462 866 587 44 18 88 37 98 42 39 21 328 110 397 123 14 2 57 11
95 19 39 8 95 18 125 22 30 4 64 9 75 11 125 24 610 23 705 -1 8 -2 35 -6 60
-9 176 -23 405 -84 602 -162 785 -310 1385 -955 1632 -1757 62 -200 87 -324
116 -572 8 -75 6 -510 -3 -565 -3 -14 -8 -48 -11 -75 -64 -490 -269 -978 -584
-1385 -156 -202 -421 -455 -594 -570 -21 -14 -38 -28 -38 -32 0 -5 -5 -8 -10
-8 -6 0 -33 -16 -60 -35 -27 -19 -52 -35 -54 -35 -3 0 -24 -12 -48 -27 -190
-122 -546 -268 -788 -324 -70 -17 -172 -36 -235 -46 -16 -2 -41 -6 -55 -9
-114 -19 -512 -26 -660 -11 -511 51 -1018 253 -1420 566 -47 36 -100 79 -118
96 -19 16 -40 33 -47 37 -11 7 -56 -38 -165 -162 -8 -9 -52 -57 -97 -106 -45
-49 -82 -93 -83 -98 -3 -13 165 -153 294 -245 264 -188 559 -338 866 -441 97
-32 327 -94 390 -104 19 -3 46 -8 60 -11 70 -14 175 -28 310 -41 148 -15 640
-7 670 11 3 1 34 6 70 9 52 6 298 52 370 71 494 124 1024 403 1390 730 646
578 1031 1298 1141 2135 33 250 32 622 -1 851 -6 41 -13 90 -16 109 -2 19 -6
46 -9 60 -3 14 -8 36 -10 50 -3 14 -7 36 -10 50 -4 14 -8 36 -11 50 -6 32 -23
96 -34 135 -5 17 -19 62 -30 100 -12 39 -24 77 -27 85 -3 8 -7 20 -8 26 -14
63 -145 354 -234 517 -297 548 -837 1062 -1396 1329 -44 21 -88 43 -98 49 -37
20 -265 108 -362 139 -110 35 -313 86 -378 95 -23 3 -49 8 -57 10 -20 6 -62
12 -129 20 -30 4 -61 8 -70 10 -55 10 -454 27 -464 19z"/>
</g>
</svg>
